<svg version="1.1" id="Layer_1" xmlns="http://www.w3.org/2000/svg" xmlns:xlink="http://www.w3.org/1999/xlink" x="0px" y="0px"
	 width="100%" viewBox="0 0 1024 496" enable-background="new 0 0 1024 496" xml:space="preserve">
<path fill="#FA8072" opacity="1.000000" stroke="none"
	d="
M694.966431,212.981964
	C700.339111,211.830765 704.876465,214.616837 708.996399,216.997818
	C718.108765,222.263931 727.796265,226.229767 737.189575,230.847397
	C740.191284,232.322998 743.411499,233.698990 745.374878,236.619171
	C743.792786,238.379791 742.643555,236.084412 741.370850,237.009384
	C743.928528,239.927933 748.224304,241.079483 749.958618,245.332306
	C746.921509,246.589172 744.152466,245.450546 741.451660,245.816574
	C723.689209,248.223816 708.287109,256.482574 692.992065,264.973358
	C686.814697,268.402557 680.088928,270.324707 673.624634,272.956238
	C670.340454,274.293213 666.630676,274.365143 664.220032,277.851654
	C663.395386,279.044373 660.520081,279.101959 658.561279,279.182953
	C643.269592,279.815247 628.063965,281.987610 612.694580,281.404724
	C606.252258,281.160370 599.857361,279.247192 593.050781,280.645477
	C593.389893,284.416931 596.816162,285.375977 598.793335,287.555756
	C602.587463,291.738678 606.042725,296.220856 607.303223,301.939117
	C607.911377,304.697937 608.011597,307.666046 609.121155,310.197845
	C611.881409,316.496216 610.337402,322.559845 609.125122,328.798828
	C608.534790,331.837402 605.362427,330.673401 604.143250,332.859497
	C600.802795,338.849396 595.851318,343.637421 591.409668,348.817505
	C587.220215,353.703491 582.026489,357.278534 577.118713,361.251129
	C576.191833,362.001373 575.120483,362.457336 573.453613,362.102234
	C574.028381,356.458405 570.375305,353.678802 565.978210,350.894958
	C560.785767,347.607574 555.050293,346.700165 549.311218,345.509186
	C546.806824,344.989441 545.710083,346.294495 546.418152,348.600708
	C546.994629,350.478149 548.138794,352.182648 549.043152,353.957764
	C557.134705,369.840027 568.101807,383.584137 580.794678,395.955414
	C584.435974,399.504517 588.846252,402.264771 592.961243,405.430786
	C593.435852,405.037750 594.159058,404.653320 594.111450,404.447296
	C592.494507,397.460205 596.757263,392.751404 600.686646,388.111786
	C605.327393,382.632263 610.742126,377.888123 616.768677,373.962616
	C619.291138,372.319550 620.929932,370.285797 621.964294,367.524017
	C628.730896,349.457855 641.077881,335.829620 656.145264,324.271667
	C661.414551,320.229706 667.050354,316.781921 672.495361,312.952576
	C666.652649,313.396790 662.919006,318.285431 657.522583,319.861450
	C660.286865,315.933350 664.387390,313.761047 668.341553,311.443604
	C686.909851,300.561279 707.384705,295.491394 728.411804,292.745819
	C739.747742,291.265656 751.070129,289.288971 762.827576,291.266388
	C768.946350,292.295502 775.748169,291.146393 782.196655,290.561401
	C794.079468,289.483368 806.106750,290.265900 817.884460,287.615021
	C820.066345,287.123932 821.306641,284.090149 823.931396,285.398712
	C824.775513,286.648499 824.240173,287.706055 823.379456,288.112579
	C815.809814,291.687744 811.769043,298.951965 806.177673,304.557587
	C789.012024,321.766785 768.495178,333.168640 745.821350,341.482910
	C726.475769,348.576752 706.396118,352.257050 686.370361,356.397705
	C669.183228,359.951416 652.984070,366.366943 636.639221,372.664062
	C626.329346,376.636108 620.448181,384.334961 613.709717,391.681580
	C608.592590,397.260712 610.172791,404.494141 609.657532,411.178223
	C608.647339,424.283112 616.779846,431.280457 626.469238,437.956329
	C642.504822,449.004639 660.285034,456.496613 677.725586,464.737671
	C680.130920,465.874268 682.461121,467.173676 684.801453,468.443146
	C687.600952,469.961731 689.007263,471.653015 684.557373,473.809631
	C688.480286,475.622009 692.303345,473.866577 696.354370,475.585938
	C691.993774,478.019012 688.066528,477.078796 684.258850,476.880920
	C679.365173,476.626617 674.580994,474.501526 669.541199,476.258728
	C668.660950,476.565674 667.188599,475.952850 666.295166,475.328064
	C651.430237,464.932739 634.563660,457.658112 620.500244,446.032166
	C613.698059,440.408936 607.023376,434.722015 598.870544,430.956848
	C577.027893,420.869476 554.214111,414.470459 530.151062,413.740631
	C522.516296,413.509033 514.553345,413.864624 507.151062,417.270233
	C502.868073,419.240753 497.991333,418.345245 493.346130,418.509918
	C471.528961,419.283386 450.075531,417.227173 429.334778,410.106476
	C415.800781,405.460022 402.463715,400.269012 388.731018,396.165802
	C367.312317,389.766083 345.805054,384.173553 323.227356,383.843048
	C318.833710,383.778717 314.435913,383.151642 309.713745,384.272980
	C309.873688,381.138367 311.643646,381.045380 313.422302,380.659698
	C319.584229,379.323425 326.170776,380.890747 332.063843,378.365295
	C337.079468,376.215790 342.886261,377.241669 347.574463,373.807922
	C350.416412,371.726410 354.120575,371.242706 357.564575,370.900299
	C369.799133,369.684021 382.054688,368.659851 394.314514,367.723145
	C403.268463,367.039001 412.235199,366.347748 421.207794,366.124451
	C433.700867,365.813568 446.065979,367.580688 458.395691,369.364685
	C463.992676,370.174530 469.509216,371.527283 475.092834,372.448364
	C477.790802,372.893433 480.558990,373.815796 483.155029,371.565521
	C484.304199,370.569397 486.100281,371.376251 487.515076,371.736359
	C494.608948,373.541901 501.886719,374.957092 508.381897,378.443451
	C514.840576,381.910248 522.204285,381.647614 528.932495,384.291718
	C539.666443,388.509949 549.106995,394.500519 557.689331,401.952423
	C562.977173,406.543793 566.152161,408.344208 573.986084,409.318024
	C573.578979,405.589386 572.767334,401.886963 570.309509,399.401398
	C563.011047,392.020477 557.701782,383.074677 550.798889,375.418243
	C541.124512,364.687744 530.064148,355.785309 516.662781,350.039764
	C511.431091,347.796783 507.135590,344.003632 502.251129,341.147064
	C492.181702,335.258301 480.859039,332.923096 470.223907,328.689850
	C461.478271,325.208740 453.673401,320.191895 446.178162,314.528198
	C450.648102,320.100037 456.873413,323.783020 461.683777,329.021545
	C450.203247,325.139465 443.373810,315.220398 434.488342,307.495758
	C431.436890,311.724457 428.464020,315.385773 424.743134,318.526947
	C418.034546,324.190338 410.124664,327.043579 401.965424,329.416809
	C390.820099,332.658539 380.053894,337.210236 368.103577,337.503876
	C348.193970,337.993042 328.536957,340.516846 309.557922,346.983215
	C308.457397,347.358185 307.235931,347.527710 306.267334,348.116333
	C298.984436,352.542328 291.301910,355.636230 282.420563,355.355011
	C281.665680,353.743530 283.761688,353.649384 284.342316,352.577240
	C277.595551,344.551239 269.386932,337.554840 265.591919,326.915527
	C264.340485,329.033997 266.020569,331.183228 263.676086,333.849762
	C258.645630,321.733185 263.051117,310.029083 262.508820,298.220490
	C258.941467,300.333649 259.776520,304.530640 257.784424,307.306213
	C256.199158,303.062439 258.240570,297.247894 262.513092,292.772186
	C269.289032,285.674011 276.778717,279.374817 284.373413,272.489532
	C241.665192,278.834167 200.378876,273.335785 160.148468,258.831970
	C168.063431,258.594666 175.283676,262.579742 183.387466,262.150208
	C173.669418,257.594818 164.156769,252.514496 154.183090,248.612503
	C140.700623,243.337723 126.508057,240.167419 112.599403,236.165985
	C111.324409,235.799164 109.754608,235.927505 109.214081,234.483093
	C108.537140,232.674179 110.191849,231.783035 111.224098,230.824921
	C115.345604,226.999359 120.789810,226.143845 125.922791,225.177856
	C137.234177,223.049179 148.264999,219.629745 159.136673,216.263138
	C166.459351,213.995529 174.481216,212.708969 181.139877,208.919388
	C196.137894,200.383682 212.532059,202.787643 228.472824,201.357697
	C236.989029,200.593796 245.389297,201.747971 253.846252,202.062424
	C266.278625,202.524719 278.449066,204.941742 291.146301,206.410522
	C290.194580,204.131882 288.622772,203.243912 287.265442,202.628677
	C276.614410,197.801117 270.244202,188.448441 263.092651,179.959518
	C258.481140,174.485657 258.392059,168.300873 261.815002,162.248245
	C268.198639,150.960434 274.884583,139.763397 282.064819,129.060059
	C285.746307,123.572189 289.750977,118.405930 292.338684,112.258636
	C292.868225,111.000610 293.720337,109.755470 295.363678,110.475571
	C296.855347,111.129196 296.639587,112.532318 296.563049,113.929428
	C296.216675,120.254692 292.891052,125.580696 291.144012,131.456696
	C295.916168,125.881165 302.207031,120.945137 298.948578,112.006699
	C298.100800,109.681137 300.259583,109.375748 301.331787,108.335281
	C308.077454,112.427208 315.522217,113.621910 323.159454,114.398712
	C316.235046,110.980179 309.045166,108.047966 303.512787,102.354507
	C307.787354,101.815559 310.930115,104.482231 314.180664,106.255371
	C322.642090,110.870926 331.587402,113.350288 341.072174,114.890945
	C350.220642,116.376984 359.059784,119.873932 368.221069,121.145264
	C378.455200,122.565468 387.845337,125.822365 396.754517,130.684875
	C412.057922,139.037262 424.873962,150.088562 433.578766,165.495224
	C435.126038,168.233643 437.181824,170.687408 439.045166,173.241669
	C439.317352,173.614731 439.827148,173.814453 440.429260,174.235992
	C443.696930,172.041763 445.084503,168.303757 447.515991,165.463379
	C459.960449,150.926453 473.796295,138.934250 493.219086,134.220062
	C501.348389,132.246964 509.515594,129.671661 517.489258,126.774078
	C521.327576,125.379288 525.474365,125.465988 529.654480,125.341591
	C536.528015,125.137032 543.327881,122.865829 550.184814,121.607697
	C562.806030,119.291924 575.005920,115.583107 587.079041,110.121872
	C588.097412,116.003120 592.858826,114.732758 596.205627,115.509514
	C599.273621,116.221588 600.689392,117.571281 602.367432,120.262802
	C605.779236,125.735229 608.356140,131.716110 612.496277,136.773010
	C617.166565,142.477493 619.700928,149.852493 619.950378,156.541138
	C620.120422,161.101074 620.010071,166.433624 619.087524,171.321655
	C618.940918,172.098480 618.483643,173.366760 618.007263,173.447495
	C612.271667,174.419312 612.541504,180.244324 609.197205,183.419937
	C612.312256,184.796021 612.705261,180.745789 615.288696,181.358963
	C616.580933,183.288620 614.943604,184.537079 613.913757,185.879257
	C609.734802,191.325684 603.829468,194.457153 597.963928,197.604645
	C593.483154,200.009048 588.854736,202.159683 584.007812,206.492722
	C589.921936,206.153717 594.651245,206.103821 599.326416,205.575119
	C616.721619,203.607971 634.234924,202.504318 651.608459,204.120697
	C666.062195,205.465454 680.844910,206.372635 694.429199,212.805267
	C693.575195,213.328751 692.474243,212.742386 691.760132,213.987320
	C694.394836,215.575516 697.186707,216.275284 701.473755,216.640701
	C698.575195,214.918945 696.108582,215.036423 694.966431,212.981964
M275.002625,331.025024
	C275.002625,331.025024 275.078369,331.123932 275.233124,331.786713
	C276.548981,334.904938 278.647308,337.370270 281.109558,339.702301
	C284.260559,342.686707 288.912476,344.571716 288.909210,349.809082
	C291.529358,350.354645 293.494690,349.612671 295.461761,348.594696
	C311.625427,340.229828 329.314423,336.155731 346.895996,333.219696
	C357.486908,331.451050 368.554321,330.166443 379.484894,330.092285
	C384.029175,330.061401 388.277130,329.679413 392.656708,328.385834
	C397.861603,326.848389 401.100311,322.475250 405.992065,320.418518
	C413.394592,317.306061 419.017914,312.062225 420.681610,301.949768
	C414.691650,309.108978 408.496399,313.962494 401.442139,317.611603
	C394.460938,321.222931 386.933075,323.434723 379.375183,325.413452
	C371.908386,327.368378 364.333527,328.910522 355.768311,330.871277
	C357.912994,328.523041 359.484375,327.295105 361.286377,327.196045
	C367.711670,326.842773 373.573975,324.276062 379.634521,322.623383
	C395.047638,318.420288 409.651123,312.685364 419.609344,298.982452
	C422.212952,295.399811 423.339355,292.132568 421.672241,287.935211
	C419.501953,282.470978 418.114655,276.831207 418.819458,270.866333
	C419.620605,264.085846 421.631744,257.693024 424.841736,251.388565
	C404.535187,261.468231 389.147003,276.798248 376.701477,295.482788
	C383.922791,278.107605 396.678314,265.553345 411.436371,254.542709
	C387.654053,263.666046 366.217926,276.245026 348.480682,294.830383
	C356.134735,282.667755 366.431824,273.168793 377.849609,264.225311
	C364.592285,257.841705 355.091583,269.924286 343.406982,269.094238
	C359.571869,261.293457 376.308441,255.068268 393.588013,249.958908
	C387.862122,249.085236 382.309601,248.842758 376.752533,249.837936
	C374.145203,250.304825 370.676239,249.773636 369.064362,251.272217
	C364.202637,255.792191 358.899170,254.738083 353.198608,254.557449
	C348.129211,254.396805 342.688202,253.434280 337.943970,257.071411
	C332.769287,261.038544 326.639709,263.082336 320.424774,264.494507
	C319.743469,260.633270 317.959045,262.072845 316.513489,263.596161
	C315.264587,264.912231 313.935303,267.580414 312.478973,266.779938
	C307.747314,264.179230 304.521027,267.563812 301.198212,269.252960
	C292.863586,273.489807 284.652313,278.487366 279.818573,286.688080
	C276.238220,292.762360 273.756683,299.696991 271.961456,306.556091
	C269.795563,314.831482 270.167694,323.266296 275.002625,331.025024
M475.527740,201.589645
	C482.586731,193.839462 489.836670,186.272141 498.476074,180.245651
	C514.452820,169.101028 522.043274,165.083618 526.386841,166.294022
	C503.160583,178.542282 483.918915,193.934479 471.947235,217.005844
	C482.983978,206.635910 494.141296,196.474670 507.234955,188.695724
	C497.897583,199.475006 486.004425,207.627426 477.215912,218.852371
	C482.047699,216.095200 486.488129,212.870377 491.179413,210.065033
	C495.753235,207.329926 499.954498,203.614655 506.964600,203.020203
	C499.434357,209.725845 490.218323,211.968872 483.643768,219.871002
	C489.283295,217.149414 493.839264,214.841309 498.488037,212.738403
	C503.031860,210.682968 507.524902,208.424438 512.485779,207.490036
	C517.292969,206.584579 521.853882,203.809723 527.084534,205.536743
	C517.640869,209.190384 507.828888,211.604614 498.646759,215.902664
	C487.390778,221.171463 475.629364,228.670975 473.731476,233.277451
	C482.479034,227.434738 491.490723,224.627960 500.956787,223.147858
	C498.792206,226.533798 495.082153,226.341156 491.949127,227.364685
	C485.517273,229.465897 484.902832,229.852753 484.753937,232.987167
	C492.500458,228.508163 501.198364,226.052322 509.683075,223.337753
	C513.022888,222.269180 514.780273,218.289093 518.139038,218.875549
	C523.076050,219.737564 526.310669,216.249527 530.445374,215.228424
	C530.607056,215.188507 530.764526,215.131302 530.926636,215.093369
	C543.856873,212.068527 557.105713,210.139954 569.117004,203.955582
	C570.321716,203.335312 571.802185,203.623306 572.965454,203.255081
	C580.408142,200.899277 588.541077,198.929886 592.867065,191.918304
	C596.203674,186.510376 600.481750,181.911133 604.260254,176.980545
	C608.320068,171.682938 609.839172,166.173523 610.199097,160.014648
	C610.335022,157.689117 611.432922,154.568130 608.813843,153.096756
	C604.536438,150.693832 603.348572,146.337799 601.122375,142.602127
	C600.617798,141.755447 599.926575,140.350784 599.310730,140.345078
	C594.215149,140.297821 593.831055,135.824738 592.642517,132.780319
	C591.188049,129.055099 589.230774,125.602440 587.758667,121.932526
	C586.505493,118.808182 584.901306,118.016006 581.639221,118.926544
	C573.474731,121.205505 565.644836,124.665382 557.192200,125.916954
	C554.248962,126.352753 551.212341,128.378708 548.434326,125.472359
	C543.329834,129.039398 537.130127,127.923706 531.554382,128.803223
	C511.901123,131.903290 494.467194,140.114014 477.501373,149.799347
	C471.644714,153.142761 467.429504,158.479019 462.240723,162.649231
	C460.525299,164.027939 458.134979,163.571823 456.765320,166.227493
	C452.496307,174.504623 451.394135,183.797470 447.727386,192.233902
	C447.123993,193.622162 447.294830,195.589859 447.702667,197.132492
	C449.433014,203.676804 450.798584,210.279419 451.657715,217.129547
	C453.868439,211.120987 454.990662,204.613785 461.410461,199.775040
	C460.216492,207.566620 454.412323,213.314972 455.890015,222.121078
	C464.196564,209.449661 471.910278,197.838501 482.560425,188.670929
	C480.811737,193.613922 476.797791,197.153168 474.397675,202.267365
	C469.513672,206.427826 466.245361,211.729065 463.568817,217.453995
	C468.953796,213.445389 471.455139,207.335159 475.527740,201.589645
M341.473328,213.057480
	C333.248657,212.359985 325.579193,209.641937 317.950958,206.709290
	C315.736389,205.857880 313.359222,204.157593 310.832336,207.232269
	C341.593201,213.886887 370.895813,225.557770 401.669647,232.187851
	C387.422028,221.287094 369.777313,215.811676 356.638397,203.272720
	C364.071991,206.451309 371.145721,210.255081 378.263611,213.974350
	C385.301147,217.651627 391.875610,222.476074 400.405914,223.811569
	C400.372925,218.756729 397.165558,216.644226 394.446991,214.364288
	C380.783569,202.905472 367.487793,191.116882 356.864227,176.610565
	C354.060333,172.781876 350.577789,169.447372 348.979126,163.780029
	C357.535278,170.325897 362.420441,179.037048 369.177185,186.039215
	C381.002319,198.293930 386.912903,204.103226 391.279022,204.741852
	C387.319672,196.192078 379.463379,189.671448 378.192200,179.779327
	C381.911926,184.445709 384.953583,189.487106 388.726715,193.958786
	C389.856689,193.321075 388.877228,191.646866 390.446136,191.589996
	C390.704132,191.707520 391.120697,191.760880 391.270721,191.989304
	C391.907471,192.958725 392.558014,193.937775 393.036987,194.989151
	C397.167480,204.055389 402.791626,211.886826 411.330292,217.340652
	C414.111694,219.117188 416.369324,219.584061 416.764954,215.224411
	C416.872375,214.041046 417.072052,212.431091 418.297791,212.348892
	C423.570679,211.995209 421.192200,209.020721 420.673737,206.393219
	C419.915161,202.548706 417.150116,198.974869 419.152344,194.594254
	C424.899628,206.472595 427.736481,219.614456 435.788208,232.116257
	C436.732971,221.980270 438.796082,213.379929 435.895081,204.128845
	C440.232910,204.740005 439.754913,202.599731 439.072632,199.969666
	C438.409180,197.411942 438.044952,194.747253 437.835632,192.106827
	C437.306213,185.428284 434.233398,180.245468 428.146454,175.160339
	C429.886292,180.435410 432.705750,183.906494 433.382477,188.180283
	C434.016785,192.186401 437.219177,195.764771 435.178436,200.394394
	C429.296265,180.903122 421.748901,162.471786 404.226257,149.277237
	C408.228302,148.025177 409.463776,151.225510 412.302399,150.953461
	C409.660706,147.884262 407.021362,145.428802 403.830292,143.581177
	C392.221924,136.859955 379.540863,132.952255 366.900879,128.674515
	C346.656433,121.823227 325.595673,118.891342 304.654846,114.028618
	C304.027771,120.471985 300.764709,125.857552 296.381042,130.122482
	C289.375000,136.938690 283.949310,144.791595 278.855011,152.993790
	C275.237183,158.818741 271.571655,164.960098 273.087372,171.907501
	C275.764771,184.179489 284.985138,191.733734 295.239258,197.373932
	C304.785858,202.624939 316.243256,202.947998 326.311340,207.389893
	C318.230743,202.182343 309.064209,198.783386 302.162018,191.824631
	C318.232605,200.266251 333.864868,209.573807 351.554504,214.529495
	C348.482208,214.063782 345.409943,213.598053 341.473328,213.057480
M592.735352,324.995148
	C593.044983,318.183960 593.214539,311.390167 590.755859,304.846252
	C590.109619,303.126190 590.405151,301.690491 592.510376,300.424957
	C595.769348,305.359497 595.789673,310.755157 595.953735,315.957001
	C596.117188,321.137909 595.556396,326.341644 595.313110,331.535370
	C595.710388,331.663574 596.107727,331.791779 596.505066,331.919983
	C598.078003,327.960144 600.646973,324.447479 602.224915,320.688660
	C604.396423,315.515930 604.014160,309.630707 600.314819,305.098816
	C598.306946,302.639038 597.129517,300.173065 596.357117,297.279114
	C595.974609,295.845886 595.864014,294.019043 594.919067,293.108551
	C588.370850,286.799103 581.123840,281.533569 572.186096,278.835419
	C571.488403,281.337616 574.614624,281.760132 574.337463,283.058624
	C547.065674,267.309875 519.036865,253.634109 486.611481,252.475479
	C489.157928,256.166138 493.403656,255.506073 496.745728,257.136688
	C500.186951,258.815674 503.727997,260.292633 507.146973,262.013763
	C510.711975,263.808441 514.223938,265.718628 517.683716,267.709290
	C520.792603,269.498047 524.509277,270.654358 525.571960,275.265259
	C506.429871,262.047241 484.724396,256.545502 462.474945,252.511505
	C475.750916,258.946747 488.996948,265.163605 501.544647,272.889221
	C521.309937,285.058594 533.348938,295.241058 533.995911,302.626770
	C516.649170,283.029053 494.176758,273.125763 472.660736,261.686859
	C477.816772,267.603119 485.934875,270.300690 489.944885,278.991089
	C484.300598,276.299744 481.196838,272.278198 477.287964,269.325714
	C467.458588,261.901337 467.513062,261.829224 464.516357,262.426819
	C475.245575,270.256012 484.693359,278.925568 490.403809,291.109222
	C474.454041,272.022034 455.519745,257.705963 431.336456,251.148453
	C430.465240,263.141724 429.227478,274.453430 436.307404,284.541779
	C437.262634,283.663147 436.321136,282.512054 437.678375,282.022247
	C441.495575,289.894623 446.259033,297.124756 454.470093,301.037720
	C457.655334,302.555603 462.330475,303.889984 463.113525,306.409302
	C464.654114,311.365784 468.796722,311.357178 471.889893,313.265717
	C474.851349,315.092834 478.066376,316.545776 481.269287,317.934021
	C484.313141,319.253357 487.487427,320.272644 489.917450,322.669312
	C470.656219,315.360779 449.896545,310.505890 438.254517,290.485718
	C438.103607,293.943237 437.862549,296.823547 439.643311,299.239929
	C445.359558,306.996674 452.427551,313.202515 461.020416,317.597565
	C471.374390,322.893555 482.945587,324.161835 493.985535,327.049164
	C504.166718,329.711853 515.119202,329.259979 524.746399,334.460815
	C525.577332,334.909729 526.796570,334.614441 527.663452,335.026642
	C532.835632,337.485840 538.648865,334.389771 543.598511,336.522217
	C555.803223,341.780243 569.254822,344.570618 579.718872,354.084564
	C586.052917,345.670532 590.309692,336.221985 592.735352,324.995148
M634.416443,212.211502
	C593.574463,208.439240 554.577087,217.367661 515.671692,229.381165
	C523.485168,229.027420 530.938660,228.017487 538.419434,229.175812
	C531.773743,232.439194 524.242249,230.048248 517.671814,232.608627
	C522.067566,232.608627 526.563538,232.845398 531.026611,232.562698
	C542.802795,231.816727 554.546753,230.373016 566.374695,230.914810
	C568.925049,231.031616 571.939697,230.502106 574.249756,234.509766
	C552.918091,233.022308 532.929138,236.356384 512.983582,240.057251
	C518.097351,240.356689 523.539001,243.097122 527.041687,239.344406
	C536.177490,241.289688 544.584900,241.529861 553.074097,241.649078
	C561.855835,241.772430 570.687805,242.074036 579.316833,243.930115
	C587.477783,245.685532 596.201965,244.909195 604.581665,248.836288
	C602.229309,250.320984 600.583496,249.782562 598.950928,249.614639
	C588.365723,248.525833 577.779480,247.144226 567.297546,245.572083
	C558.907898,244.313812 551.101440,246.910492 542.903687,246.349625
	C531.498352,245.569305 519.985229,246.990448 508.546356,245.475021
	C506.475616,245.200684 504.362732,245.649078 501.755341,246.908600
	C507.341064,249.203690 512.786804,248.793198 517.777893,250.388916
	C538.058228,256.872772 559.113708,261.093872 577.889954,271.908630
	C585.999573,276.579590 595.518616,273.496216 604.254944,275.486084
	C610.089722,276.815094 616.181396,274.985748 622.170349,274.943176
	C628.009888,274.901672 634.106812,274.967407 639.427124,272.987366
	C644.952454,270.931030 650.950378,273.319153 656.091125,270.117004
	C656.621460,269.786682 657.731873,270.131622 658.467346,270.426849
	C665.173035,273.118500 670.987915,270.731445 676.354187,266.997620
	C678.130005,265.762024 679.704102,264.215637 681.835266,263.749146
	C691.090210,261.723297 698.791016,256.222900 707.156006,252.273026
	C714.863647,248.633545 722.232605,244.758087 731.053955,244.531464
	C734.322815,244.447464 737.922852,244.299927 741.641907,241.826843
	C733.640442,237.483063 726.487000,233.189499 718.508301,230.218582
	C707.519653,226.126907 696.820007,221.265457 685.916504,216.935471
	C681.911072,215.344818 677.739929,214.038086 673.530334,213.132111
	C669.320923,212.226196 664.981689,211.793457 660.675781,211.504242
	C656.592224,211.229980 652.585327,209.626862 648.330994,210.561554
	C658.997375,212.816360 669.576111,214.921478 680.601318,218.864944
	C678.327148,220.385986 677.090027,220.273727 676.037781,219.891037
	C667.508667,216.789215 657.943298,219.225128 649.545471,214.118637
	C645.796753,211.839142 640.247314,212.015762 634.416443,212.211502
M150.316925,223.004547
	C144.963654,224.704224 139.511917,228.024612 134.281235,227.706772
	C127.222824,227.277908 121.609764,230.067520 115.426414,232.069504
	C127.126945,233.572861 137.931976,238.516846 149.681091,239.761795
	C162.514587,241.121628 172.858444,249.412659 184.651871,253.791229
	C186.325760,254.412689 187.388306,256.278564 187.640884,258.146759
	C188.178162,262.120605 193.079819,261.665588 193.396622,261.188629
	C195.742676,257.656342 198.037247,259.906586 199.561234,261.252777
	C207.402573,268.179352 217.152557,268.217804 226.661804,269.401215
	C233.726288,270.280304 240.510544,268.596436 247.431625,267.936951
	C256.812042,267.043121 266.198364,266.678864 275.747864,267.561127
	C285.064575,268.421844 293.865662,265.838898 302.401428,260.480713
	C310.077820,255.662048 319.437653,253.274094 328.713715,251.639252
	C335.634399,250.419540 342.643372,249.061554 350.300385,245.164871
	C331.292236,245.430695 314.057343,249.173111 296.580475,250.417603
	C317.586731,244.524887 338.895844,241.331192 360.702972,242.621979
	C359.130890,243.175293 357.558838,243.728592 355.986755,244.281906
	C359.779236,244.389908 363.553101,245.430756 367.634308,243.607819
	C364.533112,241.226562 361.595245,240.563553 358.405212,240.316223
	C348.246765,239.528610 338.088867,240.236237 327.932343,240.140015
	C326.417145,240.125687 324.693817,240.691238 322.845428,238.784790
	C338.684937,235.040222 354.245056,239.553650 369.527985,237.067078
	C331.658752,230.411606 293.696259,229.142105 255.559158,234.782486
	C293.208160,226.358231 330.960999,225.105225 368.897644,233.060669
	C367.132141,230.960342 364.974274,230.820618 362.904816,230.289459
	C356.044342,228.528595 347.882202,231.477905 342.382385,224.475357
	C341.573090,223.444901 339.294495,223.527924 337.677307,223.181747
	C335.080261,222.625809 332.302399,222.546432 329.889221,221.560257
	C316.145844,215.943832 301.292236,214.616867 287.193481,210.345871
	C281.856110,208.729004 276.106873,207.977676 270.418854,208.187973
	C258.478210,208.629440 246.585312,208.936844 234.663300,210.727325
	C224.020813,212.325638 213.193115,212.574493 202.745285,215.687790
	C199.027390,216.795685 195.077789,217.126068 191.233963,217.811371
	C191.155609,217.284988 191.077271,216.758606 190.998917,216.232224
	C204.609940,211.383759 218.824921,209.051697 232.579987,207.348633
	C204.191666,204.196426 177.858368,214.640640 150.316925,223.004547
M367.956543,376.147247
	C358.031921,375.091370 348.945374,378.680450 339.594757,381.029724
	C351.737335,381.419312 362.959625,386.305054 374.854980,387.488342
	C384.164917,388.414490 393.179108,392.258698 402.835541,389.777344
	C408.312592,388.369965 413.948059,387.579132 419.512177,386.510590
	C419.454498,386.058472 419.396851,385.606354 419.339203,385.154205
	C409.652069,384.923279 399.807617,387.327240 389.895355,384.354736
	C391.878693,381.420929 395.012177,382.535828 397.403931,381.102264
	C391.623138,378.756958 385.293213,380.165344 379.757843,376.880463
	C381.082733,375.703186 382.263428,375.713196 383.359772,375.811646
	C391.149384,376.511139 398.931702,377.354858 406.365997,379.944916
	C408.266174,380.606934 410.066895,381.020050 412.096222,381.198029
	C418.887207,381.793701 425.718018,381.477631 432.503723,382.543152
	C436.947174,383.240875 441.570496,383.545197 446.829346,382.434418
	C436.361664,377.015564 425.385498,375.379120 414.018005,372.095825
	C417.066376,370.121368 419.175781,370.477234 420.972351,370.991791
	C432.789673,374.376221 444.680481,377.615509 455.901062,382.731964
	C464.812500,386.795593 474.253540,387.382660 484.052734,388.473724
	C483.328583,385.219116 480.959564,385.246704 479.291382,384.512421
	C476.717682,383.379517 474.007233,382.646545 471.561584,381.115265
	C455.399963,370.996002 437.340027,368.923126 418.888611,369.576782
	C410.619385,369.869690 402.356476,370.999664 394.054321,371.437195
	C387.134003,371.801880 380.194336,372.591400 373.508667,374.913605
	C374.073303,376.114380 375.884308,375.293823 375.647888,377.028198
	C373.279144,377.469757 371.051605,376.764282 367.956543,376.147247
M452.075714,395.852844
	C438.903625,396.968170 425.909515,400.938934 412.414215,398.212982
	C423.143951,403.933624 434.458466,407.721008 446.062653,410.727814
	C453.794128,412.731171 461.467743,409.973419 469.520721,411.096497
	C483.158447,412.998444 497.253815,411.619019 511.367615,411.619019
	C511.829742,403.920563 520.150635,409.177124 523.703003,403.882233
	C505.828125,405.907837 489.006989,407.813995 472.185852,409.720184
	C472.101044,408.949432 472.016235,408.178680 471.931427,407.407928
	C487.581421,405.247955 503.125580,402.442688 519.939575,401.525848
	C517.050781,398.917236 514.218628,398.495575 512.865601,399.583679
	C509.440735,402.338013 506.235748,401.018250 502.990601,400.070496
	C498.215210,398.675842 493.357635,398.604614 488.622742,399.455170
	C474.545959,401.983887 460.202423,402.903931 446.306030,406.507233
	C444.648529,406.937012 442.851288,407.847626 440.429199,405.393097
	C455.737701,400.569946 471.536011,400.391266 486.175781,394.878357
	C479.536774,393.305054 473.432983,389.817932 466.412415,392.029968
	C461.974609,393.428192 457.418152,394.449829 452.075714,395.852844
M752.454895,295.480408
	C747.613525,295.389008 741.835205,294.551422 738.540710,297.862366
	C734.437378,301.986176 729.525208,304.541199 725.084351,307.933258
	C723.039307,309.495331 720.454834,310.562500 718.716614,314.660339
	C734.617798,309.234039 748.710876,301.234070 765.320740,300.598175
	C761.612854,307.339935 754.330322,305.023956 749.535767,308.208344
	C758.255432,307.536896 766.581360,304.184631 775.262207,303.643494
	C775.380188,304.290009 775.498230,304.936523 775.616211,305.583038
	C767.063416,307.661804 758.510559,309.740570 749.957764,311.819336
	C755.702637,313.367645 761.207031,312.227234 766.744141,311.727814
	C773.182129,311.147186 780.239319,312.175201 785.938110,309.842712
	C795.342468,305.993561 802.476501,298.135040 810.676697,291.956360
	C808.742126,291.997467 807.014404,292.425934 805.377930,293.082062
	C801.947937,294.457245 798.427673,295.267242 794.722717,295.280273
	C780.918640,295.328857 767.114624,295.392426 752.454895,295.480408
M729.470581,332.835083
	C732.957825,332.967560 736.506104,333.558655 739.915344,333.105103
	C743.408142,332.640442 746.792908,334.791321 750.205200,333.151733
	C756.502258,330.126099 763.063477,327.536560 769.009521,323.932068
	C773.313110,321.323273 776.801025,317.368713 780.652649,314.014282
	C773.929504,313.824036 767.425354,313.656799 761.483276,315.402802
	C752.233887,318.120483 742.745483,311.405731 733.739075,316.811768
	C732.625244,317.480377 729.966187,315.985840 730.137878,318.657898
	C730.307373,321.296478 732.872375,320.716003 734.500000,320.617279
	C740.464905,320.255524 746.413330,319.628601 752.370728,319.133667
	C755.671204,318.859467 759.007629,318.103546 763.631531,319.736725
	C760.938171,320.439575 759.566040,320.967590 758.150635,321.140198
	C746.772522,322.527618 735.386047,324.753204 723.919495,323.926331
	C714.731445,323.263824 707.017395,326.546112 699.311768,330.522156
	C697.952515,331.223511 696.105164,331.678955 695.876465,334.248383
	C706.865906,335.171021 717.646729,332.773193 729.470581,332.835083
M684.465454,323.962341
	C682.684082,326.187836 680.195312,328.002899 679.751892,331.345306
	C702.891174,327.991882 715.643066,308.789093 733.770203,297.979431
	C726.695618,300.196411 719.279907,299.931854 712.342957,302.109406
	C711.098022,302.500183 709.762085,303.014526 708.809448,303.857574
	C701.095642,310.684113 691.763000,315.536163 684.465454,323.962341
M666.344849,326.751648
	C662.602539,332.429291 657.805176,337.495331 655.040894,345.559113
	C663.228088,342.092499 670.127747,339.476013 673.944885,332.376495
	C675.701599,329.109406 678.012817,326.338043 680.584167,323.695648
	C684.647705,319.519958 688.610474,315.245972 692.815002,311.070557
	C682.659729,313.669342 672.203979,315.572723 666.344849,326.751648
M422.209106,391.647644
	C414.794617,390.336517 407.602997,391.805664 399.037109,392.840851
	C400.796844,393.960205 401.313599,394.302795 401.843475,394.623840
	C406.561890,397.482086 411.568542,394.884796 416.322144,395.400299
	C428.947906,396.769531 441.183624,394.570618 453.485138,392.597839
	C455.035156,392.349274 456.813202,392.254333 457.812683,389.873810
	C448.913849,387.775238 440.024994,387.265076 431.125854,386.837799
	C430.196014,386.793152 429.488129,387.235748 429.185181,388.095581
	C428.131134,391.086975 425.363708,390.907288 422.209106,391.647644
M721.092590,342.203369
	C725.225647,339.197540 731.782959,341.382324 735.711487,334.934296
	C714.220581,337.177124 693.113525,334.729156 673.483276,344.702972
	C675.402771,347.115967 676.654907,346.006927 677.990173,345.381226
	C681.263489,343.847382 684.463135,341.521637 687.891602,341.087463
	C694.777039,340.215485 701.795776,340.401764 708.758667,340.130920
	C710.389160,340.067474 711.398560,341.359161 712.661194,341.834869
	C715.094177,342.751526 717.587219,346.030975 721.092590,342.203369
M691.352539,349.147034
	C687.209351,349.176636 683.057861,349.052460 678.924988,349.274109
	C673.538147,349.562958 670.383850,350.593994 667.349487,352.516632
	C682.053345,355.223511 695.890625,351.175171 709.595520,346.139221
	C706.402161,344.640198 702.799927,344.088074 700.376526,346.351013
	C697.861206,348.699799 695.285767,349.085815 691.352539,349.147034
M476.117249,379.567200
	C484.006470,383.428223 491.739807,387.830017 501.802032,387.265961
	C493.154755,379.582031 483.407349,377.662964 473.188477,376.231903
	C473.232208,378.471436 474.642120,378.590820 476.117249,379.567200
M423.139282,240.363708
	C419.552826,239.442459 416.201202,238.109253 413.656677,235.236053
	C412.315857,233.722031 410.712799,233.897385 409.156769,234.858521
	C408.063843,235.533630 407.646729,236.650589 407.872803,237.885925
	C408.153595,239.419968 409.383728,240.415833 410.726593,240.135040
	C416.706451,238.884689 421.010376,243.128159 426.109528,244.685287
	C428.046417,245.276749 429.353851,245.626450 430.850128,243.964706
	C428.565460,242.210907 426.292297,241.242310 423.139282,240.363708
M647.553345,343.958618
	C646.711426,347.058044 643.521790,348.993744 643.761780,352.758575
	C649.532166,345.965118 653.890320,338.190002 658.988525,330.906403
	C653.448975,333.445923 650.314758,338.063324 647.553345,343.958618
M594.647827,118.278534
	C592.040833,117.361839 590.219788,117.152931 591.594238,120.963516
	C593.445679,126.096497 597.633301,129.052063 601.595215,132.328705
	C600.707458,127.119240 597.579773,123.036995 594.647827,118.278534
M639.117920,351.816193
	C639.727112,350.337646 641.211487,349.270386 641.246460,346.431183
	C635.751526,352.387787 631.095581,357.809998 628.135925,365.700226
	C634.783203,362.735016 635.684021,356.740356 639.117920,351.816193
M266.901978,167.764130
	C266.499451,166.333771 267.493683,164.521561 265.862640,163.292282
	C261.513428,168.786118 262.328247,174.303970 268.112610,179.398041
	C267.734070,175.766754 267.359406,172.172409 266.901978,167.764130
M500.815765,232.321426
	C499.542236,232.637833 498.268738,232.954254 496.907501,233.292450
	C504.991943,236.610580 506.420135,236.649887 511.668610,233.695618
	C509.888123,233.083191 507.722504,234.688629 506.370209,233.060486
	C504.855042,231.236252 503.289734,231.494110 500.815765,232.321426
M422.142151,306.352386
	C421.728180,308.068512 419.758331,309.379974 420.527252,311.681885
	C425.484589,308.081604 428.218567,301.100891 425.851929,297.401855
	C424.669006,300.364685 423.596497,303.050873 422.142151,306.352386
M441.388306,248.904099
	C445.834473,250.766525 450.266541,247.829819 455.480865,250.047684
	C452.975922,246.203217 442.541962,245.420990 440.410461,247.822800
	C440.342499,247.899384 440.691467,248.345978 441.388306,248.904099
M666.148621,468.418335
	C666.605774,468.364899 667.062927,468.311462 667.520081,468.258026
	C667.407349,467.975128 667.377380,467.552765 667.169861,467.429749
	C661.803467,464.248383 656.720459,460.497833 649.604004,458.496338
	C654.724915,463.405212 660.492371,465.253998 666.148621,468.418335
M514.799805,339.891663
	C518.255127,343.222473 522.505981,338.468903 526.000916,341.397522
	C523.857788,338.270630 516.915466,336.255310 514.319092,337.702271
	C513.684631,338.055908 513.971863,338.861725 514.799805,339.891663
M538.335754,346.527069
	C539.681702,349.080475 540.678284,351.901947 543.758667,353.810608
	C544.498230,349.665710 542.221497,346.857239 540.949463,343.852142
	C540.544800,342.896057 538.850647,342.664185 537.813293,343.354523
	C536.618408,344.149658 537.738647,345.082275 538.335754,346.527069
M443.711517,223.458786
	C442.610992,225.120743 441.398285,226.785461 444.278320,228.749985
	C445.119934,226.955063 447.131989,227.112625 448.827454,226.489365
	C446.368805,222.342407 446.368805,222.342407 443.711517,223.458786
M474.094849,235.250565
	C472.748749,236.100189 471.476013,236.987030 471.947571,239.208038
	C475.064575,237.797882 478.287567,237.458420 480.631134,234.508606
	C478.401581,234.154312 476.542480,234.107437 474.094849,235.250565
M600.748108,405.764374
	C600.944458,404.661346 602.078064,403.589386 600.802551,402.025635
	C599.005737,405.482239 596.749634,408.381866 596.943726,412.778778
	C600.415771,411.427094 599.275269,408.281921 600.748108,405.764374
M656.978271,357.453918
	C660.487671,355.867157 660.487671,355.867157 662.365234,352.918579
	C658.460205,354.036102 655.041138,355.251495 652.552917,358.397614
	C653.805603,358.143250 655.058228,357.888855 656.978271,357.453918
M366.755096,123.923050
	C363.618042,122.476456 360.302917,121.778862 356.825867,121.696213
	C360.426605,123.048851 364.105316,124.154022 367.851807,124.933075
	C368.778168,125.125717 367.948395,124.494675 367.733978,124.300797
	C367.620483,124.198158 367.432281,124.178116 366.755096,123.923050
z"/>
<path fill="#FA8072" opacity="1.000000" stroke="none"
	d="
M375.843719,137.811035
	C379.397705,142.671753 385.766968,144.270142 388.973663,149.653900
	C378.030945,144.071198 368.417267,136.412521 357.911743,130.109406
	C363.996613,130.577316 368.594360,134.062958 373.956116,137.101471
	C374.893951,137.473724 375.368835,137.642380 375.843719,137.811035
z"/>
<path fill="#FA8072" opacity="1.000000" stroke="none"
	d="
M297.629700,140.788025
	C294.747345,149.796661 294.505280,158.619263 296.095947,168.079361
	C290.506348,162.585480 292.457001,141.092651 298.783386,134.356232
	C299.838013,136.768814 297.773071,138.451126 297.629700,140.788025
z"/>
<path fill="#FA8072" opacity="1.000000" stroke="none"
	d="
M376.219879,137.900543
	C375.368835,137.642380 374.893951,137.473724 374.287598,137.238205
	C373.758026,135.511063 374.728058,134.849808 376.045166,135.278351
	C382.751465,137.460388 388.377808,141.615891 394.277924,145.314087
	C387.083740,145.852203 382.766205,139.744049 376.219879,137.900543
z"/>
<path fill="#FA8072" opacity="1.000000" stroke="none"
	d="
M353.855103,127.256500
	C353.026093,128.757309 353.001587,128.820145 352.432892,128.598419
	C348.442719,127.042892 344.463531,125.459328 340.625214,123.376434
	C345.280914,123.381157 349.559814,124.796814 353.855103,127.256500
z"/>
<path fill="#FA8072" opacity="1.000000" stroke="none"
	d="
M598.952515,177.795776
	C593.353333,185.877716 587.973206,193.674347 579.093567,198.264694
	C590.971497,185.121613 601.731567,171.360657 605.473206,153.387650
	C607.022461,162.463989 602.315735,169.770615 598.952515,177.795776
z"/>
<path fill="#FA8072" opacity="1.000000" stroke="none"
	d="
M550.008362,171.715775
	C554.658875,167.679932 557.439636,163.037247 558.768738,157.250046
	C559.448486,154.290314 560.075073,150.773544 564.295166,148.441406
	C561.575867,157.657211 559.568359,166.101730 553.536865,172.805984
	C552.166199,174.329514 551.453613,174.063507 550.008362,171.715775
z"/>
<path fill="#FA8072" opacity="1.000000" stroke="none"
	d="
M508.046600,142.902954
	C511.924316,141.429428 515.458313,140.121231 518.992310,138.813034
	C519.204041,139.284302 519.415771,139.755554 519.627563,140.226822
	C511.210083,144.325211 502.792603,148.423599 494.375153,152.521988
	C497.889160,147.909210 502.705750,145.352982 508.046600,142.902954
z"/>
<path fill="#FA8072" opacity="1.000000" stroke="none"
	d="
M483.724670,314.119568
	C484.960358,314.629791 485.886993,314.967072 486.757965,315.413025
	C486.959839,315.516388 486.971832,315.990662 487.169495,316.594574
	C483.734528,317.626892 481.304840,316.040833 478.632721,313.891052
	C480.554077,312.252197 481.957062,313.702820 483.724670,314.119568
z"/>
<path fill="#FA8072" opacity="1.000000" stroke="none"
	d="
M347.857819,325.511169
	C352.933472,324.130402 357.632782,322.912476 362.573517,324.620392
	C343.294800,329.545807 323.403931,332.055206 304.681610,342.104340
	C305.322144,338.057678 307.669189,337.700378 309.430328,336.878510
	C321.546021,331.224335 334.424286,328.111267 347.857819,325.511169
z"/>
<path fill="#FA8072" opacity="1.000000" stroke="none"
	d="
M274.962280,330.977600
	C273.886627,321.236847 271.945251,311.476257 277.054810,300.920624
	C278.355652,305.410919 277.063446,308.559845 276.835022,311.685455
	C276.433319,317.181732 276.993164,322.593994 277.493774,328.031738
	C277.629272,329.503235 278.700836,331.628418 275.356628,331.249237
	C275.078369,331.123932 275.002625,331.025024 274.962280,330.977600
z"/>
<path fill="#FA8072" opacity="1.000000" stroke="none"
	d="
M285.936584,283.224854
	C286.849854,279.482697 289.999084,278.509552 293.155731,277.492432
	C291.495697,280.234680 289.727203,282.842285 285.936584,283.224854
z"/>
<path fill="#FA8072" opacity="1.000000" stroke="none"
	d="
M650.255066,265.527008
	C652.671875,266.275665 651.878235,266.750824 650.483032,267.447876
	C645.505066,269.934753 639.885010,269.895325 634.645203,270.811096
	C628.358948,271.909790 621.794800,272.049194 615.379089,272.932404
	C614.102051,273.108215 612.687866,273.289307 611.235291,271.224976
	C624.231506,268.307770 637.052185,266.747986 650.255066,265.527008
z"/>
<path fill="#FA8072" opacity="1.000000" stroke="none"
	d="
M711.647583,246.251709
	C699.724609,250.176575 688.144531,254.016296 676.350586,257.926971
	C679.204041,253.498703 708.036743,243.323502 713.646057,244.583939
	C713.589966,245.631927 712.749451,245.856964 711.647583,246.251709
z"/>
<path fill="#FA8072" opacity="1.000000" stroke="none"
	d="
M682.663452,258.298523
	C684.289429,258.104126 685.749451,258.060974 684.448975,259.922913
	C682.054871,263.350494 678.931213,262.814606 675.310242,261.251678
	C677.029480,258.175507 680.110413,259.285095 682.663452,258.298523
z"/>
<path fill="#FA8072" opacity="1.000000" stroke="none"
	d="
M665.832397,262.399475
	C668.301636,261.798218 670.307129,260.239136 673.045410,261.552094
	C669.983826,264.656982 666.159424,264.009796 662.539917,264.802521
	C662.886353,262.783783 664.473389,263.056946 665.832397,262.399475
z"/>
<path fill="#FA8072" opacity="1.000000" stroke="none"
	d="
M584.402161,269.427856
	C587.098877,269.729218 589.447510,270.014252 591.796143,270.299255
	C589.179626,271.205750 586.731689,272.521362 584.154053,271.639893
	C582.646057,271.124237 581.613586,270.262115 584.402161,269.427856
z"/>
<path fill="#FA8072" opacity="1.000000" stroke="none"
	d="
M249.392059,264.922180
	C247.307449,264.463898 245.343582,264.792145 243.732635,262.655914
	C248.136047,261.581024 251.985687,262.748962 256.518860,263.284088
	C254.280624,265.968231 251.883621,264.777679 249.392059,264.922180
z"/>
<path fill="#FA8072" opacity="1.000000" stroke="none"
	d="
M228.832703,262.371796
	C226.645462,261.733185 224.433960,262.440369 221.975494,259.199677
	C227.568192,260.156433 231.904114,260.898193 236.240036,261.639954
	C233.843140,263.664642 231.534134,262.832367 228.832703,262.371796
z"/>
<path fill="#FA8072" opacity="1.000000" stroke="none"
	d="
M283.276917,266.000671
	C280.063416,266.194916 277.158203,266.926666 274.365509,265.219849
	C277.969238,263.639954 281.658722,263.550201 285.553406,263.970795
	C285.273804,265.600372 284.357666,265.644379 283.276917,266.000671
z"/>
<path fill="#FA8072" opacity="1.000000" stroke="none"
	d="
M370.048187,381.008911
	C375.264771,381.248047 380.094086,381.096283 384.521210,383.541626
	C377.407501,384.847198 370.472137,383.052246 362.164276,382.728088
	C365.174255,380.147278 367.525757,381.266174 370.048187,381.008911
z"/>
</svg>
